#!OML:ASF E:\Mandelcareful walks\Project 1\Capture day 1\Session 1\Subject1.ASF
:FULLY-SPECIFIED
:DEGREES
613
root -18.4334 15.6131 0.0667004 179.217 79.4674 163.14
lowerback 15.4987 0.970503 -0.742034
upperback 6.13024 1.52597 0.0554886
thorax -2.20926 0.896399 0.211839
lowerneck -15.9033 13.9814 9.14427
upperneck 34.7255 26.4768 -13.9423
head 19.5575 10.6484 -1.7221
rclavicle -1.43125e-014 -3.18055e-014
rhumerus -20.4855 5.72133 -74.1999
rradius 68.9307
rwrist -12.0731
rhand -21.0407 -22.6839
rfingers 7.12502
rthumb 5.33501 667.403
lclavicle -1.43125e-014 -3.18055e-014
lhumerus -7.4923 -17.5939 73.9267
lradius 59.6782
lwrist 20.5488
lhand -28.8245 -17.5835
lfingers 7.12502
lthumb -2.18224 12.3851
rfemur -40.6127 -17.479 9.65134
rtibia 49.0527
rfoot -18.089 -9.48015
rtoes -12.3988
lfemur -37.4842 12.4391 -9.11499
ltibia 43.2734
lfoot -14.0135 1.67102
ltoes -11.9792
614
root -18.4051 15.6191 0.0710499 179.055 79.3324 163.164
lowerback 14.9775 0.919931 -0.804726
upperback 6.30452 1.46383 0.0950289
thorax -1.75108 0.865592 0.312947
lowerneck -15.3205 13.2256 8.67212
upperneck 36.3425 26.1824 -13.6722
head 20.2189 10.5239 -1.69022
rclavicle 1.47101e-014 -2.06736e-014
rhumerus -20.6181 6.06512 -74.1436
rradius 69.1686
rwrist -12.7782
rhand -21.1162 -23.5689
rfingers 7.12502
rthumb 5.26215 666.516
lclavicle 1.47101e-014 -2.06736e-014
lhumerus -7.71636 -17.1587 73.7355
lradius 59.7633
lwrist 20.6992
lhand -29.0941 -17.5959
lfingers 7.12502
lthumb -2.44255 12.3699
rfemur -40.1583 -17.4626 9.56187
rtibia 48.9424
rfoot -18.2174 -9.64243
rtoes -12.3873
lfemur -37.0729 12.326 -9.05941
ltibia 43.0342
lfoot -14.0848 1.66367
ltoes -12.5606
615
root -18.3788 15.6258 0.079684 179.196 79.0865 163.415
lowerback 14.3908 0.834843 -0.711009
upperback 6.49908 1.37672 0.0503924
thorax -1.2308 0.825912 0.242407
lowerneck -14.8195 12.5496 8.23957
upperneck 37.8279 25.7931 -13.1699
head 20.7738 10.3865 -1.57237
rclavicle 9.54166e-015 1.07344e-014
rhumerus -20.869 6.29004 -74.1656
rradius 69.2599
rwrist -13.1793
rhand -21.2088 -23.3277
rfingers 7.12502
rthumb 5.17276 666.755
lclavicle 9.54166e-015 1.07344e-014
lhumerus -7.99366 -16.8444 73.4421
lradius 60.1918
lwrist 21.0253
lhand -30.3121 -17.1455
lfingers 7.12502
lthumb -3.61888 12.8035
rfemur -39.7639 -17.478 9.52849
rtibia 48.8538
rfoot -18.394 -9.79985
rtoes -12.1277
lfemur -36.801 12.1799 -8.98164
ltibia 42.7808
lfoot -13.9941 1.59227
ltoes -13.0205
616
root -18.3533 15.6326 0.08853 179.055 78.9147 163.374
lowerback 13.8669 0.790522 -0.595767
upperback 6.78162 1.351 -0.0491299
thorax -0.650117 0.821502 0.0925747
lowerneck -14.3197 11.9649 7.97395
upperneck 38.6637 25.4122 -13.1038
head 21.0747 10.2512 -1.66454
rclavicle 2.38542e-015 -4.17448e-014
rhumerus -21.1359 6.3189 -74.2072
rradius 69.4823
rwrist -13.3397
rhand -21.0577 -23.4665
rfingers 7.12502
rthumb 5.31865 666.62
lclavicle 2.38542e-015 -4.17448e-014
lhumerus -8.38476 -16.3869 72.9879
lradius 60.882
lwrist 20.7749
lhand -30.1799 -17.117
lfingers 7.12502
lthumb -3.49121 12.8342
rfemur -39.424 -17.4717 9.45441
rtibia 48.7776
rfoot -18.5299 -9.91141
rtoes -12.13
lfemur -36.5116 12.0821 -8.95505
ltibia 42.5329
lfoot -13.8058 1.49663
ltoes -12.8705
617
root -18.3329 15.6359 0.0961672 178.79 78.9038 163.227
lowerback 13.7465 0.822137 -0.419196
upperback 6.7886 1.40993 -0.249862
thorax -0.570272 0.857656 -0.221117
lowerneck -13.2557 11.4242 8.25365
upperneck 39.0727 25.0023 -13.4511
head 21.1457 10.2067 -2.07885
rclavicle -2.26615e-014 1.23246e-014
rhumerus -21.9417 6.22887 -74.4437
rradius 69.8737
rwrist -13.1556
rhand -20.8694 -24.2806
rfingers 7.12502
rthumb 5.50047 665.811
lclavicle -2.26615e-014 1.23246e-014
lhumerus -9.00597 -16.4481 72.5084
lradius 61.5575
lwrist 21.1874
lhand -29.6892 -16.9475
lfingers 7.12502
lthumb -3.01734 13.0109
rfemur -39.1781 -17.3602 9.39159
rtibia 48.7295
rfoot -18.5158 -10.0593
rtoes -12.4302
lfemur -36.1911 12.0698 -8.92125
ltibia 42.3072
lfoot -13.7543 1.50308
ltoes -12.9525
